<?xml version="1.0" encoding="UTF-8" standalone="no"?>
<!-- Created with Inkscape (http://www.inkscape.org/) -->

<svg
   id="svg2403"
   sodipodi:version="0.32"
   inkscape:version="1.2.2 (b0a84865, 2022-12-01)"
   width="210.918"
   height="210.91838"
   xml:space="preserve"
   sodipodi:docname="0.svg"
   version="1.0"
   inkscape:output_extension="org.inkscape.output.svg.inkscape"
   xmlns:inkscape="http://www.inkscape.org/namespaces/inkscape"
   xmlns:sodipodi="http://sodipodi.sourceforge.net/DTD/sodipodi-0.dtd"
   xmlns="http://www.w3.org/2000/svg"
   xmlns:svg="http://www.w3.org/2000/svg"
   xmlns:rdf="http://www.w3.org/1999/02/22-rdf-syntax-ns#"
   xmlns:cc="http://creativecommons.org/ns#"
   xmlns:dc="http://purl.org/dc/elements/1.1/"><metadata
     id="metadata2408"><rdf:RDF><cc:Work
         rdf:about=""><dc:format>image/svg+xml</dc:format><dc:type
           rdf:resource="http://purl.org/dc/dcmitype/StillImage" /></cc:Work></rdf:RDF></metadata><defs
     id="defs2406"><inkscape:perspective
       sodipodi:type="inkscape:persp3d"
       inkscape:vp_x="0 : 526.18109 : 1"
       inkscape:vp_y="0 : 1000 : 0"
       inkscape:vp_z="744.09448 : 526.18109 : 1"
       inkscape:persp3d-origin="372.04724 : 350.78739 : 1"
       id="perspective2410" /><clipPath
       clipPathUnits="userSpaceOnUse"
       id="clipPath2418"><path
         d="M 0,592.367 H 656.4 V 0.06 H 0 Z"
         id="path2420" /></clipPath><clipPath
       clipPathUnits="userSpaceOnUse"
       id="clipPath2498"><path
         d="M 0,592.367 H 656.4 V 0.06 H 0 Z"
         id="path2500" /></clipPath><clipPath
       clipPathUnits="userSpaceOnUse"
       id="clipPath2518"><path
         d="M 0,592.367 H 656.4 V 0.06 H 0 Z"
         id="path2520" /></clipPath><clipPath
       clipPathUnits="userSpaceOnUse"
       id="clipPath2538"><path
         d="M 0,592.367 H 656.4 V 0.06 H 0 Z"
         id="path2540" /></clipPath></defs><sodipodi:namedview
     inkscape:window-height="750"
     inkscape:window-width="1280"
     inkscape:pageshadow="2"
     inkscape:pageopacity="0.0"
     guidetolerance="10.0"
     gridtolerance="10.0"
     objecttolerance="10.0"
     borderopacity="1.0"
     bordercolor="#666666"
     pagecolor="#ffffff"
     id="base"
     showgrid="false"
     inkscape:zoom="2.8284271"
     inkscape:cx="73.892659"
     inkscape:cy="100.76272"
     inkscape:window-x="586"
     inkscape:window-y="195"
     inkscape:current-layer="g2412"
     inkscape:window-maximized="0"
     inkscape:showpageshadow="0"
     inkscape:pagecheckerboard="0"
     inkscape:deskcolor="#d1d1d1" /><g
     id="g2412"
     inkscape:groupmode="layer"
     inkscape:label="ap_logo_cmyk"
     transform="matrix(1.25,0,0,-1.25,-311.42799,474.26332)"><g
       id="g2632"
       transform="matrix(0.9696587,0,0,0.9696587,15.899012,7.8206386)"><g
         transform="matrix(0.2809263,0,0,0.2809263,236,212.99926)"
         id="g2414"><g
           clip-path="url(#clipPath2418)"
           id="g2416"><g
             transform="translate(378.164,486.321)"
             id="g2422"><path
               id="path2424"
               style="fill:#df1e2a;fill-opacity:1;fill-rule:nonzero;stroke:none"
               d="m 0,0 c 0,0 -97.169,153.168 -205.912,91.345 -134.47,-76.455 -11.219,-315.914 -11.219,-315.914 0,0 -48.956,178.17 62.264,227.196 C -82.497,34.533 0,0 0,0" /></g></g></g><g
         transform="matrix(0.2809263,0,0,0.2809263,323.72204,377.48327)"
         id="g2426"><path
           id="path2428"
           style="fill:#df1e2a;fill-opacity:1;fill-rule:nonzero;stroke:none"
           d="M 0,0 C 0,0 264.797,-54.797 232.238,-217.924 208.597,-336.431 76.06,-350.265 76.06,-350.265 c 0,0 106.127,95.075 38.868,221.472 C 72.254,-48.588 0,0 0,0" /></g><g
         transform="matrix(0.2809263,0,0,0.2809263,380.86131,286.42271)"
         id="g2430"><path
           id="path2432"
           style="fill:#df1e2a;fill-opacity:1;fill-rule:nonzero;stroke:none"
           d="m 0,0 c 0,0 -139.968,-213.022 -256.962,-122.647 -91.346,70.565 -87.694,208.488 -87.694,208.488 0,0 62.868,-133.044 183.445,-139.771 C -74.342,-58.772 0,0 0,0" /></g><g
         transform="matrix(0.2809263,0,0,0.2809263,303.57878,294.23105)"
         id="g2434"><path
           id="path2436"
           style="fill:#df1e2a;fill-opacity:1;fill-rule:nonzero;stroke:none"
           d="m 0,0 c 0,0 -115.57,114.966 -11.723,174.127 71.559,40.769 170.119,-7.368 170.119,-7.368 0,0 -116.167,1.352 -148.519,-70.987 C -11.387,48.22 0,0 0,0" /></g><g
         transform="matrix(0.2809263,0,0,0.2809263,317.92484,327.06291)"
         id="g2438"><path
           id="path2440"
           style="fill:#df1e2a;fill-opacity:1;fill-rule:nonzero;stroke:none"
           d="m 0,0 c 0,0 128.091,74.335 131.878,-25.246 3.225,-84.898 -70.416,-146.23 -70.416,-146.23 0,0 63.334,82.883 20.605,135.32 C 54.958,-2.885 0,0 0,0" /></g><g
         transform="matrix(0.2809263,0,0,0.2809263,337.01266,296.93975)"
         id="g2442"><path
           id="path2444"
           style="fill:#df1e2a;fill-opacity:1;fill-rule:nonzero;stroke:none"
           d="m 0,0 c 0,0 -14.953,-79.885 -71.962,-45.224 -46.629,28.345 -23.861,111.009 -23.861,111.009 0,0 2.564,-69.129 47.88,-83.541 C -24.746,-25.133 0,0 0,0" /></g><g
         transform="matrix(0.2809263,0,0,0.2809263,324.5356,297.57857)"
         id="g2446"><path
           id="path2448"
           style="fill:#df1e2a;fill-opacity:1;fill-rule:nonzero;stroke:none"
           d="m 0,0 c 0,0 42.987,4.849 34.27,42.87 -8.934,38.981 -72.381,35.813 -72.381,35.813 0,0 43.603,-14.715 49.269,-46.491 C 14.492,13.496 0,0 0,0" /></g></g><g
       id="g2684"
       transform="matrix(0.9876475,0,0,0.9876475,24.397287,1.719569)"><g
         transform="matrix(0.2809263,0,0,0.2809263,287.45558,233.6597)"
         id="g2482"><path
           id="path2484"
           style="fill:#df1e2a;fill-opacity:1;fill-rule:nonzero;stroke:none"
           d="m 0,0 c -2.034,0 -3.683,-0.479 -3.683,-2.49 v -4.512 c 0,-2.009 1.649,-2.488 3.683,-2.488 2.034,0 3.683,0.479 3.683,2.488 V -2.49 C 3.683,-0.479 2.034,0 0,0" /></g><g
         transform="matrix(0.2809263,0,0,0.2809263,369.61471,233.6597)"
         id="g2490"><path
           id="path2492"
           style="fill:#df1e2a;fill-opacity:1;fill-rule:nonzero;stroke:none"
           d="m 0,0 c -2.032,0 -3.682,-0.479 -3.682,-2.49 v -4.512 c 0,-2.009 1.65,-2.488 3.682,-2.488 2.034,0 3.684,0.479 3.684,2.488 V -2.49 C 3.684,-0.479 2.034,0 0,0" /></g><g
         transform="matrix(0.2809263,0,0,0.2809263,279.20702,227.66052)"
         id="g2450"><path
           id="path2452"
           style="fill:#df1e2a;fill-opacity:1;fill-rule:nonzero;stroke:none"
           d="m 0,0 c -4.126,0.63 -7.964,-0.609 -10.66,-3.791 -1.335,-1.771 -2.429,-3.664 -2.452,-5.995 0,-0.81 0.921,-1.285 1.699,-1.287 l 17.995,-0.052 c 0.924,0 1.988,0.028 2.403,0.876 0.658,1.7 -0.436,3.231 -1.068,4.662 C 6.29,-2.55 3.159,-0.609 0,0 Z m 13.578,-1.799 c 2.329,-4.006 3.518,-8.474 3.618,-13.403 -0.013,-1.15 -0.822,-2.211 -2.381,-2.211 l -26.42,-0.074 c -0.791,-0.002 -1.524,-0.422 -1.677,-1.092 -0.46,-2.596 0.582,-5.026 1.869,-7.116 3.256,-4.832 9.351,-5.802 14.62,-4.373 2.913,0.831 5.147,3.793 6.363,6.413 0.538,1.293 3.251,1.069 4.955,0.924 0.757,-0.105 1.187,-0.435 1.382,-1.049 0.341,-1.743 -0.703,-3.199 -1.335,-4.706 -3.401,-6.193 -9.834,-8.766 -16.658,-8.525 -6.558,0.145 -12.872,3.134 -16.028,9.276 -4.347,8.063 -4.273,20.423 1.967,27.563 4.954,5.925 12.53,7.868 19.89,5.998 3.909,-0.995 7.696,-3.933 9.835,-7.625" /></g><g
         transform="matrix(0.2809263,0,0,0.2809263,379.20834,227.66052)"
         id="g2454"><path
           id="path2456"
           style="fill:#df1e2a;fill-opacity:1;fill-rule:nonzero;stroke:none"
           d="m 0,0 c -4.126,0.63 -7.966,-0.609 -10.66,-3.791 -1.338,-1.771 -2.429,-3.664 -2.453,-5.995 0,-0.81 0.921,-1.285 1.699,-1.287 l 17.996,-0.052 c 0.924,0 1.988,0.028 2.403,0.876 0.656,1.7 -0.437,3.231 -1.07,4.662 C 6.289,-2.55 3.158,-0.609 0,0 Z m 13.576,-1.799 c 2.33,-4.006 3.52,-8.474 3.619,-13.403 -0.015,-1.15 -0.824,-2.211 -2.381,-2.211 l -26.422,-0.074 c -0.789,-0.002 -1.52,-0.422 -1.676,-1.092 -0.46,-2.596 0.582,-5.026 1.87,-7.116 3.254,-4.832 9.351,-5.802 14.619,-4.373 2.913,0.831 5.148,3.793 6.362,6.413 0.54,1.293 3.254,1.069 4.955,0.924 0.761,-0.105 1.188,-0.435 1.384,-1.049 0.341,-1.743 -0.703,-3.199 -1.335,-4.706 -3.403,-6.193 -9.834,-8.766 -16.659,-8.525 -6.557,0.145 -12.87,3.134 -16.029,9.276 -4.343,8.063 -4.271,20.423 1.966,27.563 4.955,5.925 12.532,7.868 19.893,5.998 3.909,-0.995 7.699,-3.933 9.834,-7.625" /></g><g
         transform="matrix(0.2809263,0,0,0.2809263,310.72779,227.66052)"
         id="g2458"><path
           id="path2460"
           style="fill:#df1e2a;fill-opacity:1;fill-rule:nonzero;stroke:none"
           d="m 0,0 c -4.125,0.63 -7.964,-0.609 -10.659,-3.791 -1.334,-1.771 -2.428,-3.664 -2.451,-5.995 0,-0.81 0.92,-1.285 1.698,-1.287 l 17.996,-0.052 c 0.923,0 1.988,0.028 2.401,0.876 0.658,1.7 -0.436,3.231 -1.068,4.662 C 6.289,-2.55 3.159,-0.609 0,0 Z m 13.58,-1.799 c 2.328,-4.006 3.518,-8.474 3.615,-13.403 -0.012,-1.15 -0.819,-2.211 -2.38,-2.211 l -26.42,-0.074 c -0.79,-0.002 -1.523,-0.422 -1.676,-1.092 -0.461,-2.596 0.581,-5.026 1.869,-7.116 3.255,-4.832 9.351,-5.802 14.618,-4.373 2.915,0.831 5.15,3.793 6.365,6.413 0.538,1.293 3.251,1.069 4.955,0.924 0.758,-0.105 1.187,-0.435 1.382,-1.049 0.34,-1.743 -0.704,-3.199 -1.335,-4.706 -3.4,-6.193 -9.834,-8.766 -16.659,-8.525 -6.557,0.145 -12.871,3.134 -16.028,9.276 -4.346,8.063 -4.272,20.423 1.968,27.563 4.954,5.925 12.53,7.868 19.891,5.998 3.908,-0.995 7.694,-3.933 9.835,-7.625" /></g><g
         transform="matrix(0.2809263,0,0,0.2809263,346.0877,223.09856)"
         id="g2462"><path
           id="path2464"
           style="fill:#df1e2a;fill-opacity:1;fill-rule:nonzero;stroke:none"
           d="m 0,0 c -2.259,-0.392 -4.404,-0.714 -6.64,-1.063 -4.153,-0.731 -9.373,-0.973 -11.024,-5.66 -0.583,-2.328 -0.145,-4.856 1.873,-6.34 3.98,-2.355 10.004,-1.745 13.692,0.802 2.989,2.043 4.09,5.192 4.082,8.745 -0.02,1.02 -0.076,2.534 -0.46,3.156 C 1.132,0.15 0.715,0.139 0,0 Z m 7.861,16.833 c 0.8,-1.483 1.165,-3.131 1.287,-4.909 L 9.27,-11.898 c 0.169,-0.749 0.29,-1.504 0.92,-2.036 1.143,-0.779 3.207,-0.766 3.207,-2.793 0,-1.576 -0.025,-2.792 -1.336,-3.498 -2.209,-0.993 -5.679,-0.895 -7.407,0.461 -1.544,1.157 -1.887,4.19 -3.498,3.204 -2.016,-1.284 -4.028,-2.62 -6.288,-3.373 -6.097,-1.847 -14.082,-1.677 -18.409,3.665 -2.768,3.621 -2.814,9.887 -0.413,13.699 3.546,5.099 9.587,5.875 14.984,6.822 5.396,0.948 10.323,0.948 10.953,5.247 0.169,2.474 -0.907,4.9 -3.375,5.826 -4.08,1.432 -9.957,1.555 -13.357,-1.456 -3.129,-3.129 -1.57,-5.246 -3.716,-5.246 -2.784,0 -5.489,-0.101 -5.333,1.779 0.361,3.317 0.873,4.649 3.294,7.474 5.318,5.246 13.526,5.392 20.739,4.151 2.985,-0.655 6.02,-2.282 7.626,-5.195" /></g><g
         transform="matrix(0.2809263,0,0,0.2809263,258.31566,228.98452)"
         id="g2466"><path
           id="path2468"
           style="fill:#df1e2a;fill-opacity:1;fill-rule:nonzero;stroke:none"
           d="m 0,0 c 0.012,0.505 -0.225,0.975 -0.598,1.333 -0.607,0.51 -1.397,0.504 -2.39,0.393 -3.716,-0.459 -7.043,-1.987 -9.616,-5.121 -0.487,-0.559 -0.863,-1.489 -1.796,-1.24 -0.967,0.339 -0.872,3.256 -0.872,3.256 0,2.023 -1.611,2.504 -3.447,2.504 -1.836,0 -3.471,-0.493 -3.471,-2.504 v -37.206 c 0,-2.01 1.65,-2.491 3.682,-2.491 2.035,0 3.684,0.481 3.684,2.491 v 19.282 c -0.017,4.104 2.139,9.556 7.076,11.996 2.016,1.096 4.493,1.12 6.704,1.8 0.599,0.187 1.1,0.777 1.092,1.75 L 0,0" /></g><g
         transform="matrix(0.2809263,0,0,0.2809263,357.99532,228.98452)"
         id="g2470"><path
           id="path2472"
           style="fill:#df1e2a;fill-opacity:1;fill-rule:nonzero;stroke:none"
           d="m 0,0 c 0.015,0.505 -0.222,0.975 -0.598,1.333 -0.607,0.51 -1.395,0.504 -2.39,0.393 -3.715,-0.459 -7.042,-1.987 -9.617,-5.121 -0.483,-0.559 -0.863,-1.489 -1.796,-1.24 -0.966,0.339 -0.87,3.256 -0.87,3.256 0,2.023 -1.613,2.504 -3.445,2.504 -1.838,0 -3.475,-0.493 -3.475,-2.504 v -37.206 c 0,-2.01 1.651,-2.491 3.685,-2.491 2.033,0 3.683,0.481 3.683,2.491 v 19.282 c -0.017,4.104 2.139,9.556 7.077,11.996 2.016,1.096 4.491,1.12 6.702,1.8 0.599,0.187 1.099,0.777 1.092,1.75 L 0,0" /></g><g
         transform="matrix(0.2809263,0,0,0.2809263,324.08612,228.98452)"
         id="g2474"><path
           id="path2476"
           style="fill:#df1e2a;fill-opacity:1;fill-rule:nonzero;stroke:none"
           d="m 0,0 c 0.012,0.505 -0.227,0.975 -0.6,1.333 -0.605,0.51 -1.395,0.504 -2.391,0.393 -3.715,-0.459 -7.042,-1.987 -9.615,-5.121 -0.484,-0.559 -0.862,-1.489 -1.796,-1.24 -0.967,0.339 -0.873,3.256 -0.873,3.256 0,2.023 -1.61,2.504 -3.445,2.504 -1.836,0 -3.472,-0.493 -3.472,-2.504 v -37.206 c 0,-2.01 1.65,-2.491 3.683,-2.491 2.035,0 3.683,0.481 3.683,2.491 v 19.282 c -0.017,4.104 2.139,9.556 7.076,11.996 2.017,1.096 4.494,1.12 6.703,1.8 0.6,0.187 1.101,0.777 1.093,1.75 L 0,0" /></g><g
         transform="matrix(0.2809263,0,0,0.2809263,287.45558,229.29663)"
         id="g2478"><path
           id="path2480"
           style="fill:#df1e2a;fill-opacity:1;fill-rule:nonzero;stroke:none"
           d="m 0,0 c -2.034,0 -3.683,-0.479 -3.683,-2.49 v -37.216 c 0,-2.011 1.649,-2.491 3.683,-2.491 2.034,0 3.683,0.48 3.683,2.491 V -2.49 C 3.683,-0.479 2.034,0 0,0" /></g><g
         transform="matrix(0.2809263,0,0,0.2809263,369.61471,229.29663)"
         id="g2486"><path
           id="path2488"
           style="fill:#df1e2a;fill-opacity:1;fill-rule:nonzero;stroke:none"
           d="m 0,0 c -2.032,0 -3.682,-0.479 -3.682,-2.49 v -37.216 c 0,-2.011 1.65,-2.491 3.682,-2.491 2.034,0 3.684,0.48 3.684,2.491 V -2.49 C 3.684,-0.479 2.034,0 0,0" /></g><g
         transform="matrix(0.2809263,0,0,0.2809263,236,212.99926)"
         id="g2494"><g
           clip-path="url(#clipPath2498)"
           id="g2496"><g
             transform="translate(349.215,26.166)"
             id="g2502"><path
               id="path2504"
               style="fill:#df1e2a;fill-opacity:1;fill-rule:nonzero;stroke:none"
               d="m 0,0 c -2.548,-3.74 -6.626,-5.146 -11.12,-4.614 -4.42,0.267 -8.571,4.055 -9.785,8.211 -1.871,6.555 -1.605,14.858 3.665,19.717 3.008,2.695 7.673,3.181 11.534,2.039 2.262,-0.779 4.468,-2.404 5.829,-4.566 C 3.84,15.058 3.597,5.707 0,0 Z m 8.062,22.196 c -1.553,3.499 -4.955,7.092 -8.519,8.571 -6.099,2.698 -14.765,2.308 -19.94,-2.161 -0.255,-0.195 -0.547,-0.266 -0.84,-0.083 -0.495,0.307 -0.568,1.103 -0.837,1.664 -0.074,0.143 -0.155,0.263 -0.242,0.371 -0.585,0.826 -1.754,1.061 -3.103,1.061 -1.936,0 -3.502,-0.478 -3.502,-2.487 v -52.808 c 0,-2.012 1.566,-2.49 3.502,-2.49 1.933,0 3.5,0.478 3.5,2.49 l -0.013,13.747 c 0.049,1.018 -0.142,2.085 0.782,2.742 0.319,0.203 0.665,0.157 0.946,0 2.189,-1.603 4.517,-2.864 7.093,-3.495 6.605,-1.435 13.305,0 17.971,4.853 6.654,7.166 7.113,19.453 3.202,28.025" /></g></g></g><g
         transform="matrix(0.2809263,0,0,0.2809263,294.0874,226.31685)"
         id="g2506"><path
           id="path2508"
           style="fill:#df1e2a;fill-opacity:1;fill-rule:nonzero;stroke:none"
           d="m 0,0 c 2.549,3.739 6.627,5.148 11.118,4.617 4.422,-0.269 8.575,-4.058 9.787,-8.213 1.872,-6.553 1.603,-14.86 -3.666,-19.718 -3.008,-2.693 -7.674,-3.18 -11.534,-2.039 -2.258,0.779 -4.467,2.404 -5.827,4.566 C -3.839,-15.058 -3.596,-5.707 0,0 Z m -8.062,-22.196 c 1.554,-3.499 4.955,-7.091 8.522,-8.571 6.097,-2.696 14.762,-2.304 19.938,2.16 0.254,0.194 0.546,0.27 0.838,0.087 0.495,-0.311 0.569,-1.107 0.837,-1.665 0.074,-0.141 0.156,-0.265 0.244,-0.373 0.584,-0.825 1.753,-1.062 3.103,-1.062 1.934,0 3.501,0.483 3.501,2.492 v 52.806 c 0,2.009 -1.567,2.489 -3.501,2.489 -1.933,0 -3.5,-0.48 -3.5,-2.489 L 21.931,9.929 c -0.047,-1.018 0.142,-2.082 -0.781,-2.74 -0.319,-0.205 -0.664,-0.159 -0.946,0 -2.187,1.601 -4.518,2.863 -7.093,3.495 -6.605,1.435 -13.306,0 -17.97,-4.856 -6.654,-7.165 -7.114,-19.453 -3.203,-28.024" /></g><g
         transform="matrix(0.2809263,0,0,0.2809263,268.60037,220.47723)"
         id="g2510"><path
           id="path2512"
           style="fill:#df1e2a;fill-opacity:1;fill-rule:nonzero;stroke:none"
           d="m 0,0 c -1.361,-2.162 -3.568,-3.787 -5.828,-4.566 -3.859,-1.141 -8.525,-0.654 -11.533,2.039 -5.269,4.858 -5.538,13.165 -3.667,19.718 1.213,4.155 5.366,7.944 9.788,8.213 4.49,0.531 8.569,-0.878 11.117,-4.617 C 3.474,15.08 3.717,5.729 0,0 Z m 4.737,26.615 c -4.665,4.856 -11.365,6.291 -17.97,4.856 -2.575,-0.632 -4.906,-1.894 -7.092,-3.495 -0.283,-0.159 -0.628,-0.205 -0.947,0 -0.923,0.658 -0.734,1.722 -0.781,2.74 l 0.011,13.749 c 0,2.009 -1.566,2.489 -3.5,2.489 -1.935,0 -3.501,-0.48 -3.501,-2.489 V -8.341 c 0,-2.009 1.566,-2.492 3.501,-2.492 1.349,0 2.519,0.237 3.102,1.062 0.088,0.108 0.171,0.232 0.245,0.373 0.266,0.558 0.341,1.354 0.836,1.665 0.293,0.183 0.585,0.107 0.838,-0.087 5.177,-4.464 13.842,-4.856 19.94,-2.16 3.566,1.48 6.967,5.072 8.521,8.571 3.91,8.571 3.452,20.859 -3.203,28.024" /></g><g
         transform="matrix(0.2809263,0,0,0.2809263,236,212.99926)"
         id="g2514"><g
           clip-path="url(#clipPath2518)"
           id="g2516"><g
             transform="translate(34.378,40.78)"
             id="g2522"><path
               id="path2524"
               style="fill:#df1e2a;fill-opacity:1;fill-rule:nonzero;stroke:none"
               d="m 0,0 c -0.219,-0.584 -0.737,-0.868 -1.335,-0.873 h -14.368 c -0.598,0.005 -1.115,0.289 -1.334,0.873 -0.363,0.867 0.145,1.664 0.341,2.441 l 7.115,19.365 c 0.077,0.205 0.249,0.815 1.062,0.815 0.813,0 0.987,-0.61 1.063,-0.815 L -0.341,2.441 C -0.147,1.664 0.363,0.867 0,0 Z m 17.265,-22.584 -20.5,52.174 -0.007,0.008 c -0.668,1.787 -1.644,3.14 -3.324,3.14 h -3.905 c -1.681,0 -2.655,-1.353 -3.324,-3.14 l -0.007,-0.008 -20.501,-52.174 c 0,0 -0.17,-0.541 0,-1.038 0.171,-0.496 0.826,-1.14 1.443,-1.14 1.273,-0.012 3.468,-0.024 4.167,-0.024 1.437,0 2.136,0.966 2.501,2.033 l 4.202,11.143 c 0.583,1.454 1.165,3.726 3.205,3.776 H 1.749 c 2.038,-0.05 2.621,-2.322 3.204,-3.776 l 4.201,-11.143 c 0.365,-1.067 1.064,-2.033 2.501,-2.033 0.699,0 2.895,0.012 4.167,0.024 0.618,0 1.272,0.644 1.443,1.14 0.171,0.497 0,1.038 0,1.038" /></g></g></g><g
         transform="matrix(0.2809263,0,0,0.2809263,391.29098,218.79196)"
         id="g2526"><path
           id="path2528"
           style="fill:#df1e2a;fill-opacity:1;fill-rule:nonzero;stroke:none"
           d="m 0,0 c -0.777,3.206 -4.736,1.335 -6.993,2.285 -0.535,0.291 -0.946,0.826 -1.068,1.381 -0.028,0.395 -0.043,0.789 -0.059,1.18 l -0.048,23.519 c 0,0.848 0.17,1.479 0.876,1.99 1.917,0.944 5.438,-0.204 6.529,1.042 0.925,1.071 0.874,2.611 0.708,4.081 -0.78,3.207 -4.741,1.338 -6.996,2.283 -0.534,0.292 -0.947,0.828 -1.069,1.386 -0.057,0.899 -0.083,1.796 -0.107,2.692 v 5.715 c 0,2.009 -1.69,2.488 -3.767,2.488 -2.086,0 -3.772,-0.479 -3.772,-2.488 v -6.329 c -0.019,-0.639 -0.043,-1.281 -0.08,-1.923 -0.024,-0.138 -0.048,-0.276 -0.082,-0.411 -0.135,-0.358 -0.383,-0.689 -0.698,-0.938 -0.816,-0.574 -1.972,-0.475 -3.081,-0.499 -1.855,0.038 -3.706,0.1 -4.214,-1.986 -0.165,-1.47 -0.214,-3.011 0.707,-4.081 1.094,-1.248 4.613,-0.097 6.533,-1.043 0.704,-0.508 0.874,-1.14 0.874,-1.989 l 0.06,-24.105 c 0,-1.894 0.344,-3.641 1.049,-5.247 0.821,-1.77 2.714,-2.904 4.439,-3.275 2.17,-0.467 3.514,-0.435 6.02,-0.435 1.774,0 2.897,-0.103 3.536,0.626 C 0.221,-3.009 0.169,-1.47 0,0" /></g><g
         transform="matrix(0.2809263,0,0,0.2809263,366.29922,218.79196)"
         id="g2530"><path
           id="path2532"
           style="fill:#df1e2a;fill-opacity:1;fill-rule:nonzero;stroke:none"
           d="m 0,0 c -0.777,3.206 -4.736,1.335 -6.994,2.285 -0.534,0.291 -0.948,0.826 -1.067,1.381 -0.027,0.395 -0.044,0.789 -0.058,1.18 l -0.049,23.519 c 0,0.848 0.168,1.479 0.874,1.99 1.919,0.944 5.439,-0.204 6.532,1.042 0.922,1.071 0.873,2.611 0.705,4.081 -0.779,3.207 -4.739,1.338 -6.996,2.283 -0.535,0.292 -0.947,0.828 -1.066,1.386 -0.057,0.899 -0.087,1.796 -0.11,2.692 v 5.715 c 0,2.009 -1.689,2.488 -3.768,2.488 -2.084,0 -3.77,-0.479 -3.77,-2.488 v -6.329 c -0.02,-0.639 -0.044,-1.281 -0.083,-1.923 -0.02,-0.138 -0.046,-0.276 -0.081,-0.411 -0.132,-0.358 -0.381,-0.689 -0.696,-0.938 -0.816,-0.574 -1.974,-0.475 -3.081,-0.499 -1.853,0.038 -3.705,0.1 -4.213,-1.986 -0.167,-1.47 -0.215,-3.011 0.705,-4.081 1.093,-1.248 4.613,-0.097 6.533,-1.043 0.706,-0.508 0.874,-1.14 0.874,-1.989 l 0.06,-24.105 c 0,-1.894 0.347,-3.641 1.049,-5.247 0.822,-1.77 2.713,-2.904 4.44,-3.275 2.172,-0.467 3.514,-0.435 6.022,-0.435 1.772,0 2.895,-0.103 3.534,0.626 C 0.217,-3.009 0.168,-1.47 0,0" /></g></g></g></svg>
