<?xml version="1.0" encoding="UTF-8" standalone="no"?>
<!-- Created with Inkscape (http://www.inkscape.org/) -->

<svg
   id="svg2"
   version="1.1"
   inkscape:version="1.2.2 (b0a84865, 2022-12-01)"
   width="200"
   height="200"
   xml:space="preserve"
   sodipodi:docname="1.svg"
   xmlns:inkscape="http://www.inkscape.org/namespaces/inkscape"
   xmlns:sodipodi="http://sodipodi.sourceforge.net/DTD/sodipodi-0.dtd"
   xmlns="http://www.w3.org/2000/svg"
   xmlns:svg="http://www.w3.org/2000/svg"
   xmlns:rdf="http://www.w3.org/1999/02/22-rdf-syntax-ns#"
   xmlns:cc="http://creativecommons.org/ns#"
   xmlns:dc="http://purl.org/dc/elements/1.1/"><metadata
     id="metadata8"><rdf:RDF><cc:Work
         rdf:about=""><dc:format>image/svg+xml</dc:format><dc:type
           rdf:resource="http://purl.org/dc/dcmitype/StillImage" /></cc:Work></rdf:RDF></metadata><defs
     id="defs6"><clipPath
       clipPathUnits="userSpaceOnUse"
       id="clipPath16"><path
         d="M 0,441.945 H 595.28 V 0 H 0 Z"
         id="path18"
         inkscape:connector-curvature="0" /></clipPath></defs><sodipodi:namedview
     pagecolor="#ffffff"
     bordercolor="#666666"
     borderopacity="1"
     objecttolerance="10"
     gridtolerance="10"
     guidetolerance="10"
     inkscape:pageopacity="0"
     inkscape:pageshadow="2"
     inkscape:window-width="925"
     inkscape:window-height="717"
     id="namedview4"
     showgrid="false"
     fit-margin-top="0"
     fit-margin-left="0"
     fit-margin-right="0"
     fit-margin-bottom="0"
     inkscape:zoom="1"
     inkscape:cx="125"
     inkscape:cy="69.5"
     inkscape:window-x="817"
     inkscape:window-y="323"
     inkscape:window-maximized="0"
     inkscape:current-layer="g10"
     inkscape:showpageshadow="0"
     inkscape:pagecheckerboard="0"
     inkscape:deskcolor="#d1d1d1" /><g
     id="g10"
     inkscape:groupmode="layer"
     inkscape:label="Senterpartiet Logo 2013"
     transform="matrix(1.25,0,0,-1.25,-131.051,229.63941)"><g
       id="g12"
       transform="matrix(0.41463191,0,0,0.41463191,61.370459,14.069372)"><g
         id="g14"
         clip-path="url(#clipPath16)"><g
           id="g20"
           transform="translate(157.2188,147.7524)"><path
             d="m 0,0 c -3.8,6.105 -10.584,8.82 -17.505,8.82 -10.041,0 -20.49,-4.752 -20.49,-16.149 0,-8.82 4.886,-12.755 20.22,-17.639 14.925,-4.752 28.766,-9.636 28.766,-28.497 0,-19.134 -16.419,-28.09 -33.788,-28.09 -11.128,0 -23.067,3.665 -29.581,13.298 l 9.77,8.006 c 4.071,-7.056 12.212,-10.718 20.49,-10.718 9.769,0 20.897,5.699 20.897,16.69 0,11.804 -8.007,13.841 -25.104,19.541 -13.57,4.476 -23.883,10.447 -23.883,26.46 0,18.453 15.877,27.681 32.703,27.681 10.72,0 19.812,-2.984 26.868,-11.262 z"
             style="fill:#59585c;fill-opacity:1;fill-rule:nonzero;stroke:none"
             id="path22"
             inkscape:connector-curvature="0" /></g><g
           id="g24"
           transform="translate(217.7354,76.7837)"><path
             d="M 0,0 C 13.705,0 22.525,10.313 22.525,23.61 22.525,36.907 13.705,47.221 0,47.221 -13.705,47.221 -22.525,36.907 -22.525,23.61 -22.525,10.313 -13.705,0 0,0 m -33.109,55.364 h 10.584 v -9.228 h 0.271 c 5.835,6.784 13.569,10.855 22.797,10.855 19.948,0 33.381,-14.112 33.381,-33.381 0,-18.999 -13.977,-33.381 -31.752,-33.381 -11.401,0 -20.49,5.7 -24.426,12.89 h -0.271 v -42.201 h -10.584 z"
             style="fill:#59585c;fill-opacity:1;fill-rule:nonzero;stroke:none"
             id="path26"
             inkscape:connector-curvature="0" /></g><g
           id="g28"
           transform="translate(426.1045,344.9146)"><path
             d="m 0,0 -0.027,0.812 -0.067,1.084 c -0.093,1.359 -0.239,2.675 -0.44,4.008 -0.4,2.653 -1.006,5.292 -1.845,7.868 -0.862,2.561 -1.945,5.07 -3.234,7.478 -2.582,4.803 -6.016,9.245 -10.226,12.912 -4.209,3.651 -9.172,6.544 -14.502,8.389 -5.33,1.886 -11.036,2.596 -16.563,2.323 -5.555,-0.283 -11.117,-1.549 -16.186,-3.893 -5.072,-2.315 -9.685,-5.553 -13.556,-9.502 -0.278,-0.284 -0.542,-0.58 -0.811,-0.872 -4.609,4.318 -10.104,7.626 -16.055,9.521 -2.726,0.897 -5.548,1.511 -8.368,1.837 -2.808,0.304 -5.729,0.318 -8.411,0.059 -2.908,-0.261 -5.61,-0.789 -8.314,-1.621 -2.674,-0.84 -5.245,-1.952 -7.657,-3.312 -4.849,-2.691 -8.957,-6.446 -12.151,-10.684 -3.168,-4.283 -5.454,-9.068 -6.693,-14.031 -1.278,-4.948 -1.567,-10.033 -0.952,-14.892 0.312,-2.452 0.859,-4.817 1.65,-7.088 0.773,-2.272 1.728,-4.447 2.903,-6.48 -0.368,2.313 -0.625,4.605 -0.665,6.871 -0.032,2.271 0.12,4.512 0.438,6.676 0.662,4.352 2.029,8.491 3.962,12.185 3.866,7.415 10.2,12.983 17.216,15.449 3.482,1.245 7.214,1.736 10.715,1.564 1.923,-0.086 3.634,-0.348 5.377,-0.781 1.73,-0.398 3.392,-0.969 4.977,-1.692 3.173,-1.463 6.008,-3.53 8.381,-5.989 2.373,-2.459 4.398,-5.484 5.975,-8.405 1.822,-3.392 7.566,-13.156 7.566,-13.156 0,0 6.155,9.843 8.542,12.925 3.869,4.991 8.925,9.75 14.314,12.324 2.789,1.114 5.727,1.823 8.743,1.909 3.038,0.109 5.987,-0.354 8.781,-1.259 2.785,-0.925 5.395,-2.385 7.696,-4.318 2.305,-1.916 4.354,-4.26 5.923,-6.949 0.796,-1.346 1.474,-2.765 2.054,-4.239 0.594,-1.475 1.056,-3.008 1.404,-4.579 0.173,-0.78 0.317,-1.598 0.418,-2.364 l 0.073,-0.514 0.074,-0.802 0.006,-0.052 c 0,0.037 0.014,-0.151 0,0.065 l 0.006,-0.071 0.015,-0.159 0.023,-0.288 0.036,-0.602 c 0.085,-1.592 0.035,-3.19 -0.116,-4.811 -0.305,-3.238 -1.2,-6.538 -2.575,-9.829 -1.316,-3.313 -3.131,-6.609 -5.265,-9.829 -2.12,-3.24 -4.528,-6.437 -7.161,-9.545 -2.596,-3.126 -5.366,-6.208 -8.274,-9.231 -5.742,-6.125 -11.935,-12.058 -17.945,-18.349 -1.512,-1.571 -3.002,-3.16 -4.469,-4.781 -1.477,-1.62 -2.924,-3.284 -4.311,-4.989 -1.397,-1.694 -2.728,-3.473 -3.957,-5.304 -1.229,-1.823 -2.386,-3.709 -3.276,-5.706 1.541,1.54 3.146,2.951 4.825,4.275 1.677,1.322 3.427,2.552 5.164,3.783 3.5,2.422 7.086,4.729 10.688,7.057 7.241,4.615 14.511,9.331 21.629,14.569 3.52,2.661 7.028,5.424 10.428,8.448 3.364,3.036 6.654,6.262 9.727,9.871 3.04,3.608 5.88,7.573 8.282,11.992 2.358,4.434 4.232,9.353 5.25,14.596 0.522,2.624 0.795,5.317 0.833,8.007 v 1.012 z"
             style="fill:#009042;fill-opacity:1;fill-rule:nonzero;stroke:none"
             id="path30"
             inkscape:connector-curvature="0" /></g><g
           id="g32"
           transform="translate(424.0869,159.9731)"><path
             d="m 0,0 c -0.311,2.446 -0.861,4.818 -1.649,7.097 -0.775,2.262 -1.729,4.447 -2.9,6.466 0.361,-2.307 0.621,-4.601 0.665,-6.872 0.029,-2.264 -0.13,-4.506 -0.441,-6.661 -0.657,-4.368 -2.027,-8.497 -3.963,-12.202 -3.864,-7.413 -10.198,-12.982 -17.223,-15.441 -3.47,-1.251 -7.202,-1.738 -10.712,-1.555 -1.916,0.087 -3.623,0.339 -5.374,0.767 -1.72,0.397 -3.399,0.975 -4.973,1.698 -3.185,1.462 -6.012,3.523 -8.376,5.988 -2.38,2.461 -4.399,5.485 -5.977,8.406 -1.836,3.385 -7.563,13.157 -7.563,13.157 0,0 -6.164,-9.845 -8.551,-12.926 -3.869,-5.005 -8.923,-9.748 -14.313,-12.318 -2.784,-1.122 -5.72,-1.829 -8.744,-1.917 -3.038,-0.108 -5.989,0.357 -8.779,1.252 -2.782,0.918 -5.397,2.396 -7.693,4.318 -2.308,1.925 -4.355,4.267 -5.931,6.957 -0.798,1.347 -1.476,2.765 -2.047,4.239 -0.59,1.478 -1.056,3.002 -1.407,4.579 -0.17,0.775 -0.314,1.584 -0.416,2.372 l -0.075,0.513 -0.077,0.797 -0.007,0.051 c 0,-0.036 -0.003,0.138 0,-0.066 l -0.003,0.072 -0.008,0.146 -0.026,0.304 -0.041,0.591 c -0.081,1.599 -0.034,3.197 0.114,4.819 0.315,3.231 1.209,6.537 2.58,9.821 1.319,3.313 3.135,6.616 5.271,9.837 2.113,3.246 4.521,6.437 7.146,9.547 2.604,3.123 5.374,6.205 8.275,9.228 5.742,6.119 11.942,12.064 17.957,18.351 1.505,1.554 2.995,3.152 4.464,4.78 1.476,1.62 2.923,3.284 4.311,4.991 1.396,1.692 2.719,3.471 3.963,5.302 1.23,1.822 2.379,3.71 3.269,5.706 -1.532,-1.547 -3.152,-2.952 -4.824,-4.282 -1.685,-1.316 -3.422,-2.545 -5.156,-3.776 -3.5,-2.422 -7.096,-4.729 -10.698,-7.058 -7.24,-4.615 -14.505,-9.324 -21.63,-14.567 -3.518,-2.663 -7.035,-5.424 -10.422,-8.449 -3.364,-3.038 -6.658,-6.278 -9.731,-9.864 -3.038,-3.616 -5.884,-7.573 -8.282,-11.993 -2.36,-4.44 -4.234,-9.359 -5.254,-14.61 -0.518,-2.616 -0.792,-5.308 -0.821,-7.998 l -0.008,-1.015 0.021,-1.098 0.026,-0.809 0.069,-1.093 c 0.094,-1.353 0.238,-2.669 0.438,-3.999 0.397,-2.663 1.009,-5.289 1.847,-7.862 0.863,-2.569 1.943,-5.079 3.235,-7.488 2.588,-4.802 6.008,-9.241 10.222,-12.909 4.212,-3.661 9.167,-6.539 14.51,-8.397 5.333,-1.889 11.029,-2.59 16.558,-2.316 5.555,0.283 11.124,1.548 16.187,3.885 5.077,2.314 9.692,5.555 13.553,9.504 0.278,0.284 0.542,0.58 0.811,0.871 4.61,-4.315 10.104,-7.624 16.057,-9.521 2.734,-0.897 5.54,-1.504 8.368,-1.837 2.805,-0.304 5.729,-0.318 8.411,-0.059 2.909,0.269 5.615,0.795 8.31,1.628 2.685,0.839 5.259,1.96 7.661,3.305 4.845,2.691 8.953,6.453 12.15,10.69 3.169,4.282 5.455,9.077 6.699,14.025 C 0.325,-9.95 0.615,-4.867 0,0"
             style="fill:#009042;fill-opacity:1;fill-rule:nonzero;stroke:none"
             id="path34"
             inkscape:connector-curvature="0" /></g><g
           id="g36"
           transform="translate(338.7686,253.2397)"><path
             d="m 0,0 c -1.316,1.686 -2.552,3.421 -3.773,5.158 -2.425,3.508 -4.74,7.095 -7.067,10.704 -4.615,7.232 -9.32,14.51 -14.564,21.618 -2.662,3.53 -5.43,7.038 -8.444,10.422 -3.035,3.37 -6.275,6.67 -9.869,9.737 -3.621,3.037 -7.572,5.886 -11.995,8.288 -4.434,2.351 -9.35,4.232 -14.601,5.25 -2.617,0.522 -5.308,0.795 -8.008,0.825 h -1.014 l -1.097,-0.021 -0.801,-0.023 -1.097,-0.071 c -1.359,-0.087 -2.673,-0.232 -4.002,-0.435 -2.655,-0.405 -5.288,-1.012 -7.861,-1.852 -2.57,-0.853 -5.079,-1.937 -7.484,-3.232 -4.813,-2.582 -9.247,-6.01 -12.911,-10.228 -3.653,-4.215 -6.545,-9.163 -8.4,-14.5 -1.881,-5.331 -2.586,-11.038 -2.318,-16.556 0.288,-5.564 1.558,-11.118 3.888,-16.187 2.314,-5.076 5.564,-9.691 9.511,-13.562 0.282,-0.276 0.577,-0.54 0.867,-0.808 -4.315,-4.609 -7.623,-10.104 -9.521,-16.059 -0.897,-2.732 -1.509,-5.54 -1.835,-8.368 -0.299,-2.806 -0.322,-5.728 -0.061,-8.404 0.268,-2.915 0.797,-5.612 1.624,-8.325 0.842,-2.676 1.961,-5.237 3.312,-7.652 2.694,-4.855 6.441,-8.955 10.687,-12.151 4.277,-3.168 9.07,-5.454 14.027,-6.689 4.953,-1.281 10.033,-1.57 14.893,-0.955 2.452,0.309 4.828,0.859 7.096,1.639 2.269,0.784 4.444,1.738 6.473,2.909 -2.314,-0.362 -4.608,-0.621 -6.876,-0.665 -2.266,-0.029 -4.501,0.124 -6.665,0.45 -4.36,0.656 -8.494,2.024 -12.193,3.961 -7.417,3.862 -12.979,10.184 -15.449,17.207 -1.244,3.479 -1.733,7.22 -1.559,10.713 0.086,1.923 0.344,3.644 0.771,5.38 0.405,1.722 0.976,3.4 1.699,4.978 1.458,3.173 3.53,6.01 5.984,8.382 2.467,2.364 5.487,4.397 8.412,5.981 3.389,1.822 13.157,7.55 13.157,7.55 0,0 -9.847,6.162 -12.928,8.549 -4.998,3.877 -9.75,8.925 -12.318,14.323 -1.122,2.775 -1.822,5.719 -1.914,8.735 -0.111,3.037 0.355,5.995 1.252,8.78 0.926,2.793 2.391,5.397 4.326,7.697 1.914,2.313 4.256,4.353 6.951,5.93 1.341,0.795 2.761,1.475 4.24,2.04 1.47,0.595 2.996,1.057 4.569,1.411 0.782,0.166 1.594,0.311 2.375,0.426 l 0.511,0.074 0.799,0.069 h 0.05 c -0.033,0 0.146,0.015 -0.062,0 l 0.074,0.009 0.148,0.015 0.3,0.022 0.591,0.043 c 1.597,0.073 3.199,0.029 4.82,-0.115 3.232,-0.318 6.534,-1.216 9.824,-2.575 3.313,-1.325 6.615,-3.14 9.837,-5.266 3.244,-2.128 6.433,-4.526 9.537,-7.152 3.124,-2.605 6.213,-5.374 9.231,-8.282 6.124,-5.743 12.061,-11.949 18.353,-17.952 1.557,-1.518 3.153,-3.002 4.788,-4.47 1.621,-1.474 3.271,-2.914 4.984,-4.311 1.693,-1.403 3.464,-2.72 5.294,-3.949 C 0.397,-2.784 2.286,-3.927 4.275,-4.824 2.734,-3.284 1.331,-1.671 0,0"
             style="fill:#009042;fill-opacity:1;fill-rule:nonzero;stroke:none"
             id="path38"
             inkscape:connector-curvature="0" /></g><g
           id="g40"
           transform="translate(490.6699,224.0557)"><path
             d="m 0,0 c -0.288,5.555 -1.546,11.11 -3.891,16.187 -2.313,5.071 -5.553,9.678 -9.504,13.553 -0.283,0.277 -0.578,0.541 -0.868,0.809 4.318,4.611 7.624,10.106 9.519,16.059 0.897,2.726 1.504,5.54 1.839,8.362 0.303,2.814 0.318,5.728 0.057,8.419 -0.26,2.907 -0.796,5.597 -1.62,8.302 -0.839,2.676 -1.954,5.26 -3.314,7.667 -2.69,4.846 -6.443,8.955 -10.69,12.15 -4.282,3.17 -9.069,5.454 -14.015,6.691 -4.963,1.28 -10.04,1.572 -14.9,0.947 -2.445,-0.303 -4.826,-0.853 -7.095,-1.642 -2.273,-0.775 -4.449,-1.728 -6.482,-2.905 2.322,0.367 4.615,0.627 6.879,0.671 2.272,0.03 4.513,-0.13 6.67,-0.447 4.361,-0.66 8.49,-2.025 12.193,-3.965 7.414,-3.861 12.974,-10.19 15.45,-17.206 1.236,-3.486 1.736,-7.217 1.562,-10.726 -0.088,-1.924 -0.348,-3.624 -0.782,-5.368 -0.398,-1.728 -0.969,-3.4 -1.693,-4.99 -1.461,-3.169 -3.529,-6.004 -5.99,-8.36 -2.457,-2.388 -5.479,-4.413 -8.403,-5.991 -3.391,-1.821 -13.162,-7.549 -13.162,-7.549 0,0 9.851,-6.163 12.93,-8.556 4.991,-3.87 9.751,-8.927 12.319,-14.314 1.121,-2.786 1.814,-5.73 1.917,-8.744 0.1,-3.039 -0.356,-5.989 -1.259,-8.782 -0.918,-2.784 -2.387,-5.396 -4.324,-7.689 -1.918,-2.313 -4.255,-4.352 -6.947,-5.929 -1.344,-0.795 -2.76,-1.475 -4.244,-2.055 -1.467,-0.586 -3.002,-1.049 -4.57,-1.394 -0.782,-0.183 -1.599,-0.32 -2.373,-0.428 l -0.506,-0.074 -0.803,-0.072 h -0.05 c 0.036,0 -0.153,-0.013 0.064,0 l -0.078,-0.013 h -0.154 l -0.288,-0.03 -0.607,-0.044 c -1.593,-0.079 -3.19,-0.035 -4.803,0.118 -3.241,0.317 -6.54,1.213 -9.831,2.573 -3.311,1.317 -6.617,3.132 -9.836,5.274 -3.241,2.118 -6.436,4.52 -9.533,7.152 -3.133,2.596 -6.219,5.374 -9.236,8.274 -6.125,5.745 -12.057,11.935 -18.349,17.954 -1.562,1.518 -3.167,2.999 -4.788,4.467 -1.613,1.469 -3.27,2.916 -4.99,4.303 -1.693,1.398 -3.465,2.729 -5.295,3.965 -1.822,1.237 -3.717,2.38 -5.714,3.276 1.549,-1.539 2.952,-3.152 4.281,-4.83 1.318,-1.678 2.555,-3.414 3.784,-5.15 2.423,-3.516 4.731,-7.103 7.051,-10.706 4.616,-7.239 9.331,-14.506 14.575,-21.624 2.66,-3.516 5.424,-7.031 8.442,-10.422 3.036,-3.364 6.277,-6.664 9.871,-9.73 3.617,-3.043 7.572,-5.887 11.991,-8.288 4.435,-2.358 9.354,-4.238 14.604,-5.251 2.617,-0.521 5.315,-0.795 8.006,-0.824 h 1.012 l 1.101,0.02 0.803,0.023 1.092,0.065 c 1.36,0.095 2.675,0.238 4.006,0.442 2.647,0.389 5.281,1.013 7.87,1.851 2.559,0.854 5.063,1.938 7.479,3.226 4.802,2.59 9.243,6.016 12.903,10.228 3.645,4.215 6.553,9.171 8.398,14.507 C -0.433,-11.239 0.269,-5.531 0,0"
             style="fill:#68b235;fill-opacity:1;fill-rule:nonzero;stroke:none"
             id="path42"
             inkscape:connector-curvature="0" /></g></g></g></g></svg>
