<?xml version="1.0" encoding="UTF-8" standalone="no"?>
<svg
   width="64.839996mm"
   height="64.839996mm"
   id="svg2"
   sodipodi:version="0.32"
   inkscape:version="1.2.2 (b0a84865, 2022-12-01)"
   inkscape:output_extension="org.inkscape.output.emf.win32"
   sodipodi:docname="2.svg"
   sodipodi:modified="true"
   version="1.1"
   xmlns:inkscape="http://www.inkscape.org/namespaces/inkscape"
   xmlns:sodipodi="http://sodipodi.sourceforge.net/DTD/sodipodi-0.dtd"
   xmlns="http://www.w3.org/2000/svg"
   xmlns:svg="http://www.w3.org/2000/svg"
   xmlns:rdf="http://www.w3.org/1999/02/22-rdf-syntax-ns#"
   xmlns:cc="http://creativecommons.org/ns#"
   xmlns:dc="http://purl.org/dc/elements/1.1/">
  <metadata
     id="metadata23">
    <rdf:RDF>
      <cc:Work
         rdf:about="">
        <dc:format>image/svg+xml</dc:format>
        <dc:type
           rdf:resource="http://purl.org/dc/dcmitype/StillImage" />
      </cc:Work>
    </rdf:RDF>
  </metadata>
  <defs
     id="defs21" />
  <sodipodi:namedview
     inkscape:window-height="1440"
     inkscape:window-width="2560"
     inkscape:pageshadow="2"
     inkscape:pageopacity="0.0"
     guidetolerance="10.0"
     gridtolerance="10.0"
     objecttolerance="10.0"
     borderopacity="1.0"
     bordercolor="#666666"
     pagecolor="#ffffff"
     id="base"
     inkscape:zoom="5.6568543"
     inkscape:cx="138.23938"
     inkscape:cy="100.40916"
     inkscape:window-x="0"
     inkscape:window-y="0"
     inkscape:current-layer="svg2"
     inkscape:showpageshadow="0"
     inkscape:pagecheckerboard="0"
     inkscape:deskcolor="#d1d1d1"
     inkscape:document-units="mm"
     showgrid="false"
     inkscape:window-maximized="0" />
  <path
     style="fill:#273c82;fill-opacity:1;fill-rule:evenodd;stroke:none"
     d="m 172.27544,125.06867 -0.13997,-0.18186 -0.16796,-0.18187 -0.20994,-0.16787 -0.25193,-0.15389 -0.29393,-0.15389 -0.32191,-0.1259 -0.3499,-0.12591 -0.3919,-0.11192 -0.41989,-0.11192 -0.46187,-0.0839 -0.48987,-0.0839 -0.51786,-0.07 -0.54586,-0.056 -0.58784,-0.056 -0.60184,-0.042 -0.64382,-0.014 -0.65783,-0.028 h -0.68581 -0.72781 l -0.7418,0.014 -0.76979,0.028 -0.78379,0.028 -0.82578,0.042 -0.83978,0.056 -0.85376,0.07 -0.88177,0.07 -0.89576,0.0839 -0.92375,0.0979 -0.95175,0.0979 -0.95175,0.12591 -0.97973,0.12591 2.07144,11.96114 1.00773,-0.37772 0.99374,-0.36373 0.95175,-0.37772 0.93775,-0.37772 0.90975,-0.37772 0.88176,-0.37772 0.85377,-0.37772 0.82578,-0.39171 0.79779,-0.37772 0.7558,-0.37772 0.7418,-0.37772 0.69981,-0.37772 0.68581,-0.37772 0.62984,-0.36373 0.61583,-0.36373 0.57385,-0.36373 0.53186,-0.36373 0.50386,-0.34975 0.47588,-0.34974 0.43387,-0.34974 0.3919,-0.33575 0.3639,-0.32176 0.30792,-0.32176 0.27992,-0.30778 0.23794,-0.30777 0.20995,-0.29378 0.15395,-0.29378 0.11197,-0.26581 0.07,-0.2658 0.028,-0.25181 -0.014,-0.23783 -0.056,-0.23782 z"
     id="path4" />
  <path
     style="fill:#adc3e4;fill-opacity:1;fill-rule:evenodd;stroke:none"
     d="m 180.07134,122.21478 0.028,0.19586 0.014,0.20984 v 0.22384 l -0.014,0.20984 -0.042,0.22384 -0.056,0.23782 -0.07,0.22384 -0.084,0.23782 -0.15396,0.37772 -0.22394,0.39171 -0.25193,0.39171 -0.30792,0.4057 -0.3639,0.4057 -0.40589,0.41969 -0.43388,0.41969 -0.48987,0.41969 -0.53186,0.43368 -0.57385,0.43368 -0.61583,0.43367 -0.64383,0.43368 -0.69981,0.43368 -0.71381,0.44767 -0.7558,0.43368 -0.79778,0.43368 -0.82578,0.43368 -0.85377,0.41969 -0.88177,0.43368 -0.92375,0.41969 -0.93775,0.4057 -0.96574,0.41968 -0.99373,0.39171 -1.02173,0.39171 -1.04972,0.39171 -1.06371,0.37772 -1.07772,0.36374 -1.1057,0.34974 -1.1197,0.34974 -1.14769,0.32176 -1.14769,0.32176 -1.17568,0.29378 0.18195,1.04923 2.28139,-0.1399 2.28138,-0.16787 2.29539,-0.18187 2.30938,-0.19585 2.32337,-0.22384 2.32338,-0.23782 2.35137,-0.25182 2.35137,-0.29378 2.36537,-0.29378 2.37936,-0.33575 2.39336,-0.34974 2.39336,-0.37773 2.42135,-0.4057 2.40735,-0.43367 2.43535,-0.46166 2.43535,-0.48964 2.43534,-0.51762 2.44935,-0.54559 2.46334,-0.57358 2.46333,-0.61554 2.47734,-0.64353 2.47734,-0.6715 2.47734,-0.69948 2.49132,-0.74145 2.49134,-0.78342 2.50533,-0.8114 2.50532,-0.85337 2.50533,-0.89534 2.51932,-0.92331 2.51933,-0.96529 2.51932,-1.00725 2.51933,-1.04923 -10.32923,-54.223853 -1.5116,1.007254 -1.52559,0.993265 -1.52558,0.965286 -1.5256,0.965285 -1.55358,0.951296 -1.53959,0.937306 -1.55358,0.923317 -1.56758,0.895337 -1.56759,0.895337 -1.56757,0.881347 -1.56758,0.853369 -1.56759,0.839379 -1.58157,0.839378 -1.58158,0.8114 -1.56757,0.797409 -1.58158,0.783421 -1.56758,0.75544 -1.56758,0.755441 -1.56758,0.727461 -1.55358,0.713472 -1.56758,0.699482 -1.55359,0.671503 -1.53958,0.657513 -1.53959,0.643524 -1.52559,0.629534 -1.52559,0.601555 -1.5116,0.587565 -1.4976,0.559585 -1.4836,0.559586 -1.4836,0.517617 -1.45561,0.517618 -1.45561,0.489636 z"
     id="path6" />
  <path
     style="fill:#273c82;fill-opacity:1;fill-rule:evenodd;stroke:none"
     d="m 172.10747,85.422025 -0.26592,-0.727462 -0.30792,-0.741451 -0.36391,-0.727461 -0.41988,-0.727462 -0.46188,-0.727461 -0.51786,-0.727462 -0.58784,-0.713472 -0.62984,-0.713472 -0.6998,-0.685492 -0.7698,-0.685493 -0.82577,-0.671502 -0.89576,-0.657514 -0.96574,-0.629534 -1.04973,-0.615544 -1.1057,-0.601555 -1.18968,-0.573575 -1.27366,-0.545596 -1.35763,-0.517617 -1.42762,-0.489638 -1.52559,-0.461658 -1.60957,-0.433679 -1.69355,-0.39171 -1.79151,-0.363731 -1.8755,-0.321761 -1.98747,-0.293783 -2.07144,-0.237824 -2.18342,-0.195855 -2.28139,-0.153886 -2.37936,-0.111917 -2.49134,-0.05596 -2.6033,-0.01399 -2.70127,0.04197 0.014,-0.01399 -3.737,0.111917 -3.709,0.181865 -3.69502,0.223835 -3.68101,0.265803 -3.66701,0.335751 -3.65303,0.39171 -3.65302,0.433679 -3.63902,0.489638 -3.639028,0.559586 -3.625028,0.601555 -3.639024,0.657513 -3.639024,0.713472 -3.639025,0.783419 -3.639024,0.825389 -3.667017,0.895338 -3.65302,0.951295 -3.681013,1.007255 -3.69501,1.063213 -3.709005,1.133161 -3.736998,1.18912 -3.750995,1.245078 -3.76499,1.315027 -3.80698,1.370985 -3.820975,1.440933 -3.862964,1.496892 -3.876961,1.552851 -3.932946,1.622798 -3.960938,1.692748 -3.98893,1.748705 -4.044916,1.818654 -4.072907,1.888604 -4.1288945,1.944563 13.8282925,74.35496 0.979738,-0.71348 1.00773,-0.72746 1.049719,-0.75544 1.091706,-0.76943 1.133697,-0.79741 1.161688,-0.81139 1.203678,-0.83938 1.245665,-0.85337 1.273659,-0.88135 1.315648,-0.89534 1.357635,-0.90933 1.399625,-0.93731 1.441613,-0.96528 1.483603,-0.96529 1.511595,-1.00725 1.567579,-1.00726 1.357636,-0.88135 1.371633,-0.86735 1.357635,-0.86736 1.357637,-0.85337 2.701275,-1.66477 2.687279,-1.6228 2.645292,-1.56684 2.617298,-1.51088 2.561313,-1.46891 2.505329,-1.41296 2.435347,-1.343 2.379362,-1.30104 2.281388,-1.23109 2.211407,-1.17513 2.099438,-1.10518 2.001462,-1.03523 1.889494,-0.96529 1.777523,-0.89534 1.483603,-0.75544 1.469606,-0.74145 1.483602,-0.72746 1.483602,-0.71347 1.469606,-0.71347 1.483602,-0.68549 1.483603,-0.6855 1.469605,-0.6715 1.483603,-0.65751 1.483602,-0.65752 1.469606,-0.62953 1.483601,-0.62954 1.483603,-0.61554 1.46961,-0.60155 1.4836,-0.58757 1.46961,-0.58756 1.4836,-0.57358 1.46961,-0.55959 1.4696,-0.54559 1.4696,-0.5456 1.46961,-0.51761 1.4696,-0.51762 1.46962,-0.50363 1.4696,-0.50363 1.45561,-0.48963 1.46961,-0.47565 1.4556,-0.46166 1.45561,-0.44767 1.45562,-0.44767 1.45561,-0.43368 1.4556,-0.41968 1.44161,-0.41969 1.31565,-0.4057 1.34364,-0.37772 1.38564,-0.37772 1.42761,-0.36374 1.45561,-0.34974 1.4836,-0.33575 1.51159,-0.32176 1.53959,-0.29378 1.56759,-0.29379 1.58157,-0.2658 1.60957,-0.25181 1.62356,-0.23783 1.62357,-0.20984 1.65155,-0.19586 1.65157,-0.16787 1.66555,-0.15389 1.4696,-0.11191 1.44162,-0.11192 1.39962,-0.07 1.37163,-0.07 1.32964,-0.056 1.30166,-0.028 h 1.25966 1.21767 l 1.18969,0.028 1.14768,0.028 1.10571,0.07 1.06372,0.07 1.02172,0.0839 0.97974,0.11192 0.93775,0.1259 0.89575,0.1399 0.85378,0.16788 0.79778,0.16787 0.76979,0.19586 0.69982,0.20984 0.67182,0.22383 0.61584,0.23783 0.55985,0.25181 0.51786,0.2798 0.47586,0.29378 0.4059,0.29378 0.3639,0.32176 0.30792,0.33575 0.26593,0.36373 0.19594,0.36373 0.15396,0.37773 0.084,0.4057 -6.3403,-31.322814 -1.60957,-5.483939 z"
     id="path8" />
  <path
     style="fill:#273c82;fill-opacity:1;fill-rule:evenodd;stroke:none"
     d="m 105.77926,164.30962 v -0.11192 -0.2658 -0.48963 -0.76943 -1.13317 -1.55285 -2.04248 l 0.014,-0.55959 0.056,-0.51762 0.084,-0.48963 0.11197,-0.46166 0.13996,-0.41969 0.16796,-0.4057 0.18195,-0.36373 0.20994,-0.33575 0.22394,-0.30778 0.23794,-0.29378 0.26592,-0.25181 0.26594,-0.23783 0.27992,-0.22383 0.27993,-0.19586 0.29391,-0.16787 0.27993,-0.15389 0.29392,-0.13989 0.29393,-0.11192 0.27992,-0.11192 0.27993,-0.0839 0.26592,-0.07 0.25193,-0.07 0.25194,-0.042 0.22393,-0.042 0.69982,-0.0839 0.26593,-0.014 v 0.34974 1.00726 1.58083 2.0285 2.42021 2.68601 2.88186 2.96581 2.96581 2.88186 2.68602 2.40621 2.04249 1.56684 1.02125 0.34973 h -0.25193 -0.69982 -0.99373 -1.13369 -1.1477 -1.00773 -0.69981 -0.26593 V 169.40186 H 94.274343 v 0.0979 0.30777 0.54559 0.81141 1.09119 1.38497 1.73472 2.09844 l -0.014,0.5456 -0.05598,0.51762 -0.08398,0.48964 -0.11197,0.44767 -0.139962,0.41968 -0.167955,0.39171 -0.181952,0.36374 -0.209943,0.33574 -0.22394,0.32176 -0.251933,0.2798 -0.251932,0.2658 -0.265928,0.23783 -0.279925,0.20984 -0.279925,0.19585 -0.293921,0.16788 -0.293922,0.15389 -0.279925,0.13989 -0.293921,0.12591 -0.279925,0.11192 -0.279925,0.0839 -0.265929,0.0839 -0.251932,0.056 -0.251933,0.056 -0.22394,0.042 -0.391894,0.07 -0.307917,0.028 -0.195948,0.014 h -0.06998 v -0.22383 -0.62953 -0.99326 -1.30104 -1.56684 -1.79068 -1.95855 -2.07046 -2.15441 -2.1684 -2.14041 -2.08447 -1.94455 -1.79068 -1.56684 -1.30103 l 0.014,-0.55959 0.05598,-0.51762 0.08398,-0.48963 0.11197,-0.46166 0.139962,-0.41969 0.167955,-0.4057 0.18195,-0.36373 0.209944,-0.33575 0.22394,-0.30778 0.251933,-0.29378 0.251932,-0.25181 0.265929,-0.23783 0.279925,-0.22383 0.279925,-0.19586 0.293921,-0.16787 0.279925,-0.15389 0.293922,-0.13989 0.293921,-0.11192 0.279925,-0.11192 0.279925,-0.0839 0.265928,-0.0699 0.251932,-0.07 0.251933,-0.042 0.22394,-0.042 0.699812,-0.0839 0.265929,-0.014 v 12.54863 h 11.504916 z"
     id="path10" />
  <path
     style="fill:#273c82;fill-opacity:1;fill-rule:evenodd;stroke:none"
     d="m 162.3241,151.78889 5.57051,11.06581 6.07437,-11.06581 h 7.27805 l -10.07731,17.23525 v 0.16788 0.51761 0.82539 1.10518 1.357 1.56684 1.76269 1.91659 l -0.014,0.47564 -0.056,0.44767 -0.084,0.43368 -0.11197,0.39171 -0.13996,0.36373 -0.16795,0.34975 -0.18195,0.32175 -0.20995,0.29378 -0.22394,0.26581 -0.25194,0.25182 -0.25192,0.22383 -0.26594,0.20984 -0.27993,0.19586 -0.27992,0.16788 -0.29391,0.15387 -0.27993,0.12592 -0.29392,0.1259 -0.29393,0.11192 -0.27992,0.0839 -0.27993,0.084 -0.51786,0.1259 -0.47587,0.0839 -0.69981,0.0839 -0.26593,0.014 V 169.0241 L 155.074,151.78885 Z"
     id="path12" />
  <path
     style="fill:#273c82;fill-opacity:1;fill-rule:evenodd;stroke:none"
     d="m 192.34605,156.86713 h 0.85378 0.60183 l 0.58784,0.028 0.27993,0.028 0.27992,0.028 0.27993,0.042 0.26592,0.042 0.25194,0.056 0.25193,0.07 0.23793,0.07 0.23794,0.07 0.22394,0.0979 0.22395,0.0979 0.20994,0.11192 0.19595,0.11192 0.19594,0.13989 0.16796,0.1399 0.16796,0.16788 0.16795,0.16787 0.13996,0.18187 0.13996,0.19585 0.12597,0.20985 0.11197,0.22383 0.098,0.23783 0.098,0.2658 0.07,0.2658 0.07,0.29378 0.042,0.30778 0.042,0.32176 0.014,0.33575 0.014,0.36373 -0.014,0.34974 -0.014,0.34974 -0.042,0.32176 -0.042,0.30778 -0.07,0.29378 -0.07,0.27979 -0.084,0.25182 -0.098,0.25181 -0.11196,0.23782 -0.12597,0.20985 -0.12597,0.20984 -0.15395,0.19586 -0.15396,0.18187 -0.16796,0.16788 -0.18196,0.15388 -0.18195,0.1399 -0.19594,0.1399 -0.20994,0.1259 -0.22394,0.11192 -0.22394,0.0979 -0.23794,0.0839 -0.23794,0.084 -0.25193,0.0699 -0.26593,0.0699 -0.26592,0.056 -0.27993,0.042 -0.29392,0.042 -0.27993,0.028 -0.61583,0.042 h -0.62983 -0.79779 z m 6.3543,13.33214 0.39189,-0.0839 0.3779,-0.0979 0.3639,-0.11192 0.3639,-0.1259 0.34991,-0.15389 0.33592,-0.16788 0.32191,-0.18186 0.30791,-0.19585 0.29393,-0.20985 0.27992,-0.22383 0.27993,-0.23782 0.25192,-0.25182 0.25194,-0.2658 0.23794,-0.26581 0.22393,-0.29378 0.20995,-0.29378 0.19594,-0.30777 0.19595,-0.32177 0.16796,-0.32175 0.15395,-0.33576 0.15397,-0.33575 0.13996,-0.34974 0.11197,-0.34975 0.11197,-0.36373 0.098,-0.34974 0.084,-0.37772 0.07,-0.36373 0.07,-0.37772 0.042,-0.37772 0.028,-0.37772 0.028,-0.37772 v -0.37772 l -0.014,-0.62954 -0.028,-0.60155 -0.07,-0.57358 -0.084,-0.55958 -0.11196,-0.53161 -0.13996,-0.51761 -0.15396,-0.48964 -0.18195,-0.46166 -0.19595,-0.44767 -0.22394,-0.41969 -0.23794,-0.4057 -0.26592,-0.37772 -0.27993,-0.36373 -0.30792,-0.34974 -0.32192,-0.30777 -0.3499,-0.30777 -0.34991,-0.2798 -0.3779,-0.2658 -0.40589,-0.23782 -0.40588,-0.22384 -0.43389,-0.19585 -0.44788,-0.18187 -0.46187,-0.16788 -0.47588,-0.15388 -0.48987,-0.12591 -0.50386,-0.11191 -0.51787,-0.0839 -0.54585,-0.0839 -0.54585,-0.056 -0.55985,-0.042 -0.55985,-0.028 h -0.58785 -0.098 l -0.25194,-0.014 h -0.34991 -0.40589 -0.40589 -0.3639 l -0.26593,-0.014 h -0.11197 l -0.26593,0.014 -0.69981,0.0839 -0.46188,0.0839 -0.51785,0.1259 -0.27993,0.0839 -0.27992,0.0839 -0.29393,0.11192 -0.27992,0.12591 -0.29393,0.13989 -0.27992,0.15389 -0.27993,0.18186 -0.27992,0.18187 -0.26593,0.22383 -0.25193,0.23783 -0.23794,0.25181 -0.22394,0.27979 -0.20994,0.30778 -0.18195,0.33575 -0.16796,0.34974 -0.13996,0.37772 -0.11196,0.41969 -0.084,0.43368 -0.056,0.47564 -0.014,0.50363 v 1.2171 1.51088 1.7627 1.97254 2.09845 2.21036 2.23835 2.22435 2.1684 2.04248 1.87461 1.65078 1.38498 1.04922 0.65751 0.23782 l 0.26593,-0.014 0.69981,-0.0839 0.47588,-0.0839 0.51786,-0.1259 0.27992,-0.084 0.27993,-0.0839 0.29392,-0.11192 0.29392,-0.1259 0.27992,-0.12592 0.29393,-0.15387 0.27992,-0.16788 0.27993,-0.19586 0.26592,-0.20984 0.25194,-0.22383 0.25193,-0.25182 0.22394,-0.26581 0.20994,-0.29378 0.18195,-0.32175 0.16796,-0.34975 0.13997,-0.36373 0.11196,-0.39171 0.084,-0.43368 0.056,-0.44767 0.014,-0.47564 v -1.10519 -1.20311 -1.24508 -1.18911 -1.06322 -0.86735 -0.57358 -0.20985 h 0.098 l 7.72592,12.84249 h 7.51599 z"
     id="path14" />
  <path
     style="fill:#273c82;fill-opacity:1;fill-rule:evenodd;stroke:none"
     d="m 220.61847,164.1977 h 9.88135 v 5.40002 h -9.88135 v 8.61761 h 0.11197 0.32192 0.51786 0.65782 0.76979 0.86777 0.92376 0.96573 0.95174 0.93775 0.86778 0.76979 0.65782 0.50386 0.32192 0.12597 l -0.028,0.23783 -0.07,0.62954 -0.042,0.20984 -0.056,0.20984 -0.056,0.22383 -0.07,0.23783 -0.084,0.25182 -0.098,0.2518 -0.11197,0.25182 -0.13996,0.2658 -0.15396,0.25182 -0.16795,0.26581 -0.19595,0.2518 -0.20995,0.23783 -0.23793,0.23783 -0.25193,0.23782 -0.29393,0.20984 -0.30791,0.20984 -0.34991,0.18187 -0.3639,0.16787 -0.40589,0.13991 -0.43389,0.1259 -0.46187,0.11192 -0.50387,0.0699 -0.53186,0.042 -0.57384,0.014 h -0.12597 -0.3359 -0.50388 l -0.65781,0.014 h -0.7838 -0.86776 -0.93775 -0.95174 -0.95175 -0.93775 -0.86776 -0.7698 l -0.65783,0.014 h -0.50386 -0.32191 -0.11198 v -0.36374 -1.00726 -1.55284 -1.98653 -2.33628 -2.57409 -2.72797 -2.74198 -2.7 -2.51814 -2.25233 -1.8886 -1.39897 -0.83938 -0.16787 0.61554 l 0.014,-0.23782 0.084,-0.62954 0.042,-0.19585 0.056,-0.22384 0.07,-0.22383 0.07,-0.23782 0.084,-0.25182 0.11197,-0.25181 0.11198,-0.2658 0.13996,-0.25182 0.15395,-0.2658 0.18195,-0.25181 0.18196,-0.26581 0.22394,-0.23782 0.23794,-0.25182 0.25192,-0.22383 0.27993,-0.22383 0.30792,-0.19586 0.3359,-0.19585 0.36391,-0.16788 0.39189,-0.1399 0.43389,-0.1259 0.44788,-0.11192 0.47587,-0.07 0.51786,-0.042 0.55985,-0.028 10.35723,0.028 v 5.41399 h -10.27323 z"
     id="path16" />
  <path
     style="fill:#273c82;fill-opacity:1;fill-rule:evenodd;stroke:none"
     d="m 152.52672,153.56558 -0.40589,0.014 -0.3779,0.014 -0.3639,0.028 -0.3639,0.028 -0.33591,0.042 -0.33591,0.056 -0.30791,0.056 -0.30793,0.07 -0.29391,0.0699 -0.27993,0.07 -0.26593,0.0839 -0.25193,0.0839 -0.46187,0.16787 -0.41989,0.18187 -0.3639,0.18186 -0.32192,0.16788 -0.26593,0.16787 -0.22394,0.15389 -0.27992,0.20985 -0.098,0.0839 -0.26592,-0.25182 -0.27993,-0.23782 -0.26593,-0.25182 -0.29392,-0.22383 -0.27993,-0.22383 -0.29392,-0.22384 -0.29392,-0.20984 -0.30792,-0.20985 -0.30791,-0.19585 -0.30792,-0.19586 -0.32192,-0.18186 -0.30791,-0.18187 -0.33591,-0.16787 -0.32192,-0.15389 -0.33591,-0.15389 -0.33591,-0.15388 -0.3359,-0.1399 -0.34991,-0.12591 -0.3499,-0.1259 -0.34992,-0.11192 -0.3499,-0.0979 -0.36391,-0.0979 -0.3499,-0.0979 -0.3639,-0.07 -0.3779,-0.07 -0.3639,-0.0699 -0.3779,-0.042 -0.3779,-0.042 -0.3779,-0.042 -0.3779,-0.028 -0.3779,-0.014 h -0.39189 l -0.81178,0.028 -0.79779,0.056 -0.79779,0.11192 -0.76979,0.13989 -0.7698,0.18187 -0.75579,0.22383 -0.72781,0.26581 -0.7278,0.29378 -0.69981,0.33575 -0.67182,0.36373 -0.67182,0.4057 -0.62983,0.43368 -0.62983,0.46166 -0.58785,0.48964 -0.57384,0.51761 -0.55985,0.5456 -0.51786,0.58756 -0.50386,0.60156 -0.46189,0.62953 -0.44788,0.64353 -0.40588,0.6715 -0.3779,0.69948 -0.34991,0.71347 -0.32192,0.72746 -0.27992,0.75544 -0.25193,0.76944 -0.20995,0.78342 -0.18195,0.8114 -0.13996,0.81139 -0.098,0.8254 -0.056,0.85336 -0.028,0.83938 0.014,0.39171 v 0.36373 l 0.028,0.37772 0.028,0.37773 0.028,0.36372 0.042,0.36374 0.056,0.36373 0.056,0.36372 0.07,0.36374 0.07,0.34974 0.084,0.36373 0.084,0.34974 0.098,0.33576 0.098,0.34974 0.11196,0.33575 0.11198,0.33575 0.12596,0.33575 0.12597,0.33575 0.13997,0.32176 0.13996,0.32176 0.13996,0.32177 0.15395,0.32175 0.16796,0.30778 0.16795,0.30777 0.16796,0.30778 0.18196,0.29378 0.18195,0.29378 0.18195,0.29378 0.19595,0.29379 0.20993,0.27979 0.20995,0.27978 0.20994,0.26581 -0.15396,0.15389 -0.40589,0.4057 -0.57385,0.55958 -0.65782,0.65752 -0.65782,0.64352 -0.57385,0.57357 -0.3919,0.39172 -0.13996,0.15388 h 0.43389 l 0.40589,-0.014 0.3919,-0.014 0.3779,-0.028 0.3499,-0.028 0.32191,-0.028 0.30792,-0.042 0.29392,-0.042 0.53186,-0.0979 0.46187,-0.11191 0.40589,-0.12592 0.34991,-0.1259 0.27993,-0.11192 0.23794,-0.1259 0.18195,-0.11192 0.15396,-0.0979 0.16795,-0.15388 0.056,-0.056 0.25192,0.22384 0.26594,0.20983 0.26592,0.19586 0.26593,0.20984 0.27993,0.19586 0.27992,0.18186 0.27993,0.18187 0.27992,0.16787 0.29393,0.16788 0.29392,0.16788 0.29391,0.15388 0.30793,0.15389 0.29391,0.13989 0.30792,0.13991 0.32192,0.1259 0.30791,0.12591 0.32191,0.1259 0.32192,0.0979 0.32192,0.11192 0.32191,0.0979 0.32192,0.0839 0.33591,0.0839 0.3359,0.0699 0.33591,0.07 0.33591,0.0559 0.3499,0.056 0.33592,0.042 0.34991,0.028 0.3499,0.028 0.34991,0.028 0.3499,0.014 h 0.34991 l 0.81178,-0.028 0.81179,-0.056 0.78378,-0.11192 0.78379,-0.13989 0.7558,-0.18186 0.7558,-0.22384 0.7418,-0.2658 0.7138,-0.29378 0.69982,-0.33575 0.68582,-0.36374 0.65782,-0.4057 0.64383,-0.43368 0.61584,-0.46166 0.60183,-0.48963 0.57384,-0.51762 0.54586,-0.54559 0.51787,-0.57358 0.50386,-0.60155 0.47587,-0.62954 0.43388,-0.65751 0.40589,-0.67151 0.3919,-0.69948 0.34991,-0.71347 0.30791,-0.72746 0.29393,-0.75544 0.23793,-0.76944 0.22394,-0.78341 0.16795,-0.8114 0.13997,-0.8114 0.098,-0.82539 0.07,-0.85337 0.014,-0.85337 -0.014,-0.68549 -0.042,-0.6715 -0.056,-0.67151 -0.098,-0.6715 -0.11198,-0.65751 -0.13996,-0.64353 -0.16795,-0.62953 -0.19595,-0.62954 -0.20995,-0.61554 -0.22394,-0.60155 -0.26592,-0.58757 -0.26593,-0.57358 -0.29392,-0.57357 -0.32191,-0.5456 -0.33592,-0.54559 -0.3499,-0.51762 z m -17.01943,3.58135 0.44788,0.014 0.44788,0.028 0.44788,0.0699 0.41989,0.0839 0.43388,0.0979 0.41988,0.1259 0.4059,0.15389 0.40589,0.16787 0.3919,0.18187 0.3779,0.20984 0.37789,0.23783 0.36391,0.23782 0.3499,0.26581 0.33591,0.27979 0.33591,0.29378 0.30792,0.32176 -13.85629,13.86375 -0.19594,-0.33575 -0.19595,-0.33576 -0.16796,-0.33575 -0.16795,-0.34974 -0.15396,-0.36373 -0.13997,-0.36373 -0.12596,-0.37772 -0.12596,-0.37772 -0.098,-0.39171 -0.098,-0.39171 -0.07,-0.39171 -0.07,-0.4057 -0.042,-0.41969 -0.042,-0.4057 -0.028,-0.41968 v -0.43369 l 0.014,-0.5316 0.028,-0.5456 0.07,-0.51761 0.07,-0.51762 0.11198,-0.51762 0.12596,-0.48964 0.13996,-0.48964 0.16796,-0.48964 0.18195,-0.46166 0.20994,-0.44767 0.22395,-0.44767 0.23793,-0.43367 0.26593,-0.4057 0.27993,-0.4057 0.29391,-0.37772 0.30792,-0.36374 0.32192,-0.34974 0.33591,-0.33575 0.3499,-0.30777 0.3639,-0.29378 0.3779,-0.2798 0.3919,-0.25181 0.40589,-0.23782 0.40589,-0.20985 0.41988,-0.18186 0.43389,-0.16788 0.44788,-0.1399 0.44788,-0.1259 0.46188,-0.0839 0.46187,-0.07 0.47588,-0.042 z m 9.3215,10.5342 -0.014,0.5456 -0.042,0.53161 -0.056,0.5316 -0.084,0.51762 -0.098,0.51762 -0.12596,0.48963 -0.15397,0.48964 -0.16795,0.48964 -0.18196,0.46166 -0.20994,0.44767 -0.22393,0.44767 -0.23794,0.43367 -0.26593,0.40571 -0.26593,0.39171 -0.29392,0.39171 -0.30792,0.36372 -0.32191,0.34974 -0.3499,0.33576 -0.34992,0.30777 -0.3639,0.29378 -0.3779,0.2658 -0.39189,0.26581 -0.39189,0.22383 -0.41989,0.20985 -0.41989,0.19585 -0.43389,0.16787 -0.44787,0.13991 -0.44789,0.11191 -0.44787,0.0979 -0.47588,0.056 -0.46187,0.042 -0.48987,0.014 h -0.3919 l -0.3779,-0.028 -0.3779,-0.042 -0.3779,-0.0699 -0.3779,-0.07 -0.3639,-0.0979 -0.3639,-0.11191 -0.3499,-0.12591 -0.34991,-0.15389 -0.33591,-0.15389 -0.3359,-0.16787 -0.32193,-0.18187 -0.32191,-0.20984 -0.32191,-0.20984 -0.29392,-0.22384 -0.29392,-0.23782 13.64634,-13.6539 0.13996,0.29378 0.13997,0.29379 0.12596,0.29378 0.11197,0.30777 0.11197,0.32177 0.098,0.30776 0.098,0.32177 0.084,0.32176 0.07,0.33575 0.07,0.33575 0.042,0.33575 0.056,0.33576 0.028,0.34974 0.028,0.34975 0.014,0.34973 z"
     id="path18" />
</svg>
