<?xml version="1.0" encoding="UTF-8" standalone="no"?>
<!-- Generator: Adobe Illustrator 27.1.1, SVG Export Plug-In . SVG Version: 6.00 Build 0)  -->

<svg
   version="1.1"
   id="Layer_1"
   x="0px"
   y="0px"
   viewBox="0 0 53.999999 54.000002"
   xml:space="preserve"
   sodipodi:docname="3.svg"
   width="54"
   height="54"
   inkscape:version="1.2.2 (b0a84865, 2022-12-01)"
   xmlns:inkscape="http://www.inkscape.org/namespaces/inkscape"
   xmlns:sodipodi="http://sodipodi.sourceforge.net/DTD/sodipodi-0.dtd"
   xmlns="http://www.w3.org/2000/svg"
   xmlns:svg="http://www.w3.org/2000/svg"><defs
   id="defs59" /><sodipodi:namedview
   id="namedview57"
   pagecolor="#505050"
   bordercolor="#eeeeee"
   borderopacity="1"
   inkscape:pageshadow="0"
   inkscape:pageopacity="0"
   inkscape:pagecheckerboard="0"
   showgrid="false"
   fit-margin-top="0"
   fit-margin-left="0"
   fit-margin-right="0"
   fit-margin-bottom="0"
   inkscape:zoom="12.466438"
   inkscape:cx="27.513873"
   inkscape:cy="39.826933"
   inkscape:window-width="1387"
   inkscape:window-height="1205"
   inkscape:window-x="992"
   inkscape:window-y="25"
   inkscape:window-maximized="0"
   inkscape:current-layer="Layer_1"
   inkscape:showpageshadow="0"
   inkscape:deskcolor="#505050" />
<style
   type="text/css"
   id="style2">
	.st0{fill:#3A9144;}
	.st1{fill:#D40F14;}
	.st2{fill:#FFFFFF;}
	.st3{fill:#623C2C;}
</style>
<g
   id="g14"
   transform="translate(-5.4607695,-3.5)">
	<path
   class="st0"
   d="m 39.4,11.5 c 0.6,0.5 1.1,1 1.7,1.5 1.2,1 2.5,1.8 3.9,2.5 1.2,0.5 2.4,0.9 3.7,1.1 0.2,0 0.5,0.1 0.7,0.1 0.4,0 0.8,0.1 1.2,0.1 0.4,0 0.8,0 1.1,0 0.3,0 0.6,-0.1 0.9,-0.1 2.6,-0.4 5.2,-1.7 6.9,-3.7 -0.1,0 -0.2,0 -0.3,0 -0.5,-0.1 -1,-0.2 -1.5,-0.4 C 57.2,12.4 56.8,12.2 56.4,11.9 55.6,11.4 55,10.8 54.3,10.1 54,9.7 53.6,9.4 53.3,9 53.2,8.9 53.2,8.9 53.1,8.8 52.7,8.3 52.2,7.8 51.7,7.3 50.3,5.9 48.6,4.7 46.6,4.1 46.3,4 46,3.9 45.7,3.9 45.3,3.8 45,3.8 44.6,3.8 c -0.4,0 -0.8,0 -1.2,0 -0.2,0 -0.5,0 -0.7,0.1 -1.2,0.2 -2.4,0.6 -3.5,1.2 -2,1.1 -3.8,2.6 -5.4,4.2 0,0 0,0 0.1,0 0.1,0 0.2,0 0.2,0 0,0 0,0 0.3,0 1.2,0.1 2.1,0.5 2.9,0.9 0.8,0.4 1.4,0.9 1.8,1.2 0.2,0 0.2,0 0.3,0.1"
   id="path4" />
	<path
   class="st1"
   d="m 52.6,17.6 c -0.2,0 -0.5,0.1 -0.7,0.1 -0.4,0 -0.8,0 -1.1,0 h -0.1 c -0.4,0 -0.9,0 -1.3,-0.1 -0.3,0 -0.5,-0.1 -0.8,-0.1 -1.3,-0.2 -2.6,-0.6 -3.9,-1.2 -1.5,-0.7 -2.9,-1.5 -4.2,-2.6 -0.4,-0.3 -0.8,-0.7 -1.1,-1 -0.2,-0.2 -0.4,-0.4 -0.6,-0.5 -0.1,0 -0.1,-0.1 -0.2,-0.2 -0.5,-0.4 -1,-0.8 -1.6,-1.1 -0.3,-0.1 -0.5,-0.3 -0.8,-0.4 -0.5,-0.1 -1.1,-0.1 -1.6,-0.2 -1,-0.1 -2,-0.3 -2.9,-0.6 -1,-0.4 -1.9,-1 -2.9,-1.5 -2.2,-1.3 -4.7,-1.9 -7.3,-1.6 -0.9,0.1 -1.9,0.3 -2.9,0.6 -1.2,0.3 -2.2,0.9 -3.2,1.6 -0.9,0.6 -1.7,1.3 -2.5,2 -0.4,0.4 -0.8,0.8 -1.1,1.2 -0.2,0.2 -0.4,0.5 -0.6,0.7 -0.4,0.5 -0.8,1.1 -1.2,1.6 -0.9,1.4 -1.7,2.9 -2.4,4.5 -0.9,2.3 -1.6,4.8 -1.9,7.2 -0.2,1.9 -0.3,3.8 -0.2,5.7 0.1,0.9 0.2,1.8 0.3,2.6 0.3,1.9 0.9,3.9 1.6,5.7 1,2.4 2.3,4.6 3.8,6.6 0.5,0.7 1.1,1.3 1.6,1.9 0.4,0.4 0.7,0.8 1.1,1.1 0.7,0.7 1.5,1.4 2.3,2 1.6,1.2 3.4,2.3 5.4,2.8 0.7,0.1 1.3,0.2 2,0.2 1.7,-0.1 3.5,-0.3 5.2,0 1.9,0.3 3.8,1 5.8,1 1.6,0 3.2,-0.4 4.7,-1 0.7,-0.3 1.4,-0.6 2.1,-1 1.7,-1 3.2,-2.3 4.6,-3.6 0.4,-0.4 0.9,-0.9 1.3,-1.4 0.5,-0.6 1,-1.2 1.5,-1.9 1.4,-1.9 2.7,-4 3.7,-6.2 0.8,-1.7 1.4,-3.5 1.8,-5.3 0.2,-0.8 0.4,-1.6 0.5,-2.5 0.3,-1.8 0.5,-3.6 0.5,-5.4 0,-2.3 -0.3,-4.7 -1.1,-6.9 -0.4,-0.8 -0.9,-1.8 -1.6,-2.8"
   id="path6" />
	<path
   class="st2"
   d="m 40.6,31.2 h -8.4 -1.8 c -1,5 -2.1,10 -3.1,15 h 4.4 c 0.6,-2.7 1.2,-5.5 1.8,-8.2 h 5.6 z"
   id="path8" />
	<path
   class="st2"
   d="m 43,20.1 c -1.3,0 -14.1,0 -14.4,0 -1.4,0 -2.7,0.6 -3.6,1.8 -0.1,0.2 -0.3,0.4 -0.4,0.6 -0.2,0.5 -0.4,1 -0.5,1.6 0,0.3 -4.2,22 -4.2,22 1.5,0 3.8,0 5.2,0 0,0 3.1,-15.8 3.2,-16.2 0.2,-0.7 0.3,-1.1 0.9,-1.1 h 12 z"
   id="path10" />
	<path
   class="st3"
   d="M 33.7,9.2 C 34.5,6.5 36.1,4.6 36.1,4.6 L 33.8,3.5 c -1,1.9 -1.6,3.9 -2,5.2 0.8,0.4 1.6,0.5 1.9,0.5"
   id="path12" />
</g>




</svg>
