<?xml version="1.0" encoding="UTF-8" standalone="no"?>
<!-- Generator: Adobe Illustrator 24.3.0, SVG Export Plug-In . SVG Version: 6.00 Build 0)  -->

<svg
   version="1.1"
   id="Layer_1"
   x="0px"
   y="0px"
   viewBox="0 0 207.2 207.2"
   xml:space="preserve"
   sodipodi:docname="4.svg"
   width="207.2"
   height="207.2"
   inkscape:version="1.2.2 (b0a84865, 2022-12-01)"
   xmlns:inkscape="http://www.inkscape.org/namespaces/inkscape"
   xmlns:sodipodi="http://sodipodi.sourceforge.net/DTD/sodipodi-0.dtd"
   xmlns="http://www.w3.org/2000/svg"
   xmlns:svg="http://www.w3.org/2000/svg"><defs
   id="defs75" /><sodipodi:namedview
   id="namedview73"
   pagecolor="#505050"
   bordercolor="#eeeeee"
   borderopacity="1"
   inkscape:showpageshadow="0"
   inkscape:pageopacity="0"
   inkscape:pagecheckerboard="0"
   inkscape:deskcolor="#505050"
   showgrid="false"
   inkscape:zoom="2.9995174"
   inkscape:cx="70.177955"
   inkscape:cy="131.52116"
   inkscape:window-width="2058"
   inkscape:window-height="1259"
   inkscape:window-x="472"
   inkscape:window-y="25"
   inkscape:window-maximized="0"
   inkscape:current-layer="Layer_1" />
<style
   type="text/css"
   id="style64">
	.st0{fill:#539760;}
	.st1{fill:#EB4040;}
	.st2{fill:none;stroke:#000000;stroke-miterlimit:10;}
	.st3{fill:url(#);}
	.st4{fill:#FFFFFF;}
	.st5{fill:none;}
	.st6{fill:#509760;}
	.st7{fill:#E84040;}
	.st8{fill:#4D9162;}
	.st9{fill:#F04E4C;}
	.st10{fill:#231F20;}
</style>
<g
   id="g70"
   transform="translate(0,38)">
	<path
   class="st0"
   d="m 23.5,85 c 0,7.8 6.5,13.9 17.1,13.9 C 50.8,98.9 57.5,93 57.5,85 57.5,77.7 52.6,74.3 39.8,71.5 18.4,66.8 1.5,57.5 1.6,35.6 1.6,15.7 18.1,0 40.7,0 60,0 75.1,11.2 79.3,26.8 L 56,32.9 C 54.6,27.4 49,23 40.6,23 31,23 25.7,28.1 25.7,34.8 c 0,6.4 6.3,10.5 15.2,12.2 23.7,4.8 41.3,14.6 41.3,38.1 0,22 -17.4,37 -41.7,37 C 19.5,122 3.2,108.9 0,91.3 Z"
   id="path66" />
	<polygon
   class="st1"
   points="120.1,68 120.1,3.3 93.2,3.3 93.2,118 110,118 207.2,3.3 174.9,3.3 "
   id="polygon68" />
</g>
</svg>
