<?xml version="1.0" encoding="UTF-8" standalone="no"?>
<!-- Generator: Adobe Illustrator 16.0.0, SVG Export Plug-In . SVG Version: 6.00 Build 0)  -->

<svg
   version="1.1"
   id="svg5786"
   x="0px"
   y="0px"
   width="545"
   height="545"
   viewBox="0 0 545 545"
   enable-background="new 0 0 545 522.5"
   xml:space="preserve"
   sodipodi:docname="5.svg"
   inkscape:version="1.2.2 (b0a84865, 2022-12-01)"
   xmlns:inkscape="http://www.inkscape.org/namespaces/inkscape"
   xmlns:sodipodi="http://sodipodi.sourceforge.net/DTD/sodipodi-0.dtd"
   xmlns="http://www.w3.org/2000/svg"
   xmlns:svg="http://www.w3.org/2000/svg"><defs
   id="defs41" /><sodipodi:namedview
   id="namedview39"
   pagecolor="#505050"
   bordercolor="#eeeeee"
   borderopacity="1"
   inkscape:showpageshadow="0"
   inkscape:pageopacity="0"
   inkscape:pagecheckerboard="0"
   inkscape:deskcolor="#505050"
   showgrid="false"
   inkscape:zoom="1.9655502"
   inkscape:cx="167.38315"
   inkscape:cy="41.464216"
   inkscape:window-width="2207"
   inkscape:window-height="1205"
   inkscape:window-x="352"
   inkscape:window-y="86"
   inkscape:window-maximized="0"
   inkscape:current-layer="svg5786" />
<path
   id="path5113"
   fill="#e31c23"
   d="m 166.459,167.676 c -9.089,33.85 -27.598,107.09 -28.507,174.395 52.099,28.594 129.394,58.523 179.548,70.893 48.36,-38.371 111.539,-103.51 136.402,-136.624 -21.781,-44.828 -60.159,-112.038 -95.898,-149.215 -57.181,5.666 -159.742,29.985 -191.545,40.551 m -20.66,6.351 C 134.434,225.382 122.445,291.304 119.149,332.258 58.901,298.25 8.913,259.983 10.28,249.297 c 1.423,-11.364 60.16,-53.165 135.519,-75.27 m 198.484,-63.533 c -56.58,8.614 -134.76,26.365 -170.807,35.359 16.787,-56.825 51.593,-121.039 63.677,-123.624 11.105,-2.346 62.089,36.333 107.13,88.265 m -1.744,310.442 c 39.247,-36.987 79.104,-80.329 121.094,-124.722 25.615,53.157 59.299,144.946 50.084,153.221 -12.781,11.468 -111.753,-6.07 -171.178,-28.499 M 137.615,364.699 c 48.953,22.351 103.052,44.338 159.829,66.451 -57.75,51.743 -132.997,101.415 -146.527,93.496 -9.801,-5.729 -16.992,-102.505 -13.302,-159.947 M 467.293,259.365 c -28.775,-51.656 -57.133,-90.832 -86.312,-134.166 77.516,-8.979 147.302,4.283 153.427,15.119 3.675,6.401 -22.762,61.748 -67.115,119.047" />
</svg>
